<?xml version="1.0" encoding="UTF-8" standalone="no"?>
<!-- Created with Inkscape (http://www.inkscape.org/) -->

<svg
   xmlns:dc="http://purl.org/dc/elements/1.1/"
   xmlns:cc="http://creativecommons.org/ns#"
   xmlns:rdf="http://www.w3.org/1999/02/22-rdf-syntax-ns#"
   xmlns:svg="http://www.w3.org/2000/svg"
   xmlns="http://www.w3.org/2000/svg"
   xmlns:sodipodi="http://sodipodi.sourceforge.net/DTD/sodipodi-0.dtd"
   xmlns:inkscape="http://www.inkscape.org/namespaces/inkscape"
   width="210mm"
   height="297mm"
   viewBox="0 0 210 297"
   version="1.1"
   id="svg8"
   inkscape:version="0.92.2 (5c3e80d, 2017-08-06)"
   sodipodi:docname="btn_juncture.svg">
  <defs
     id="defs2" />
  <sodipodi:namedview
     id="base"
     pagecolor="#ffffff"
     bordercolor="#666666"
     borderopacity="1.0"
     inkscape:pageopacity="0.0"
     inkscape:pageshadow="2"
     inkscape:zoom="1.4"
     inkscape:cx="60.776387"
     inkscape:cy="808.21474"
     inkscape:document-units="mm"
     inkscape:current-layer="layer1"
     showgrid="false"
     inkscape:window-width="2880"
     inkscape:window-height="1526"
     inkscape:window-x="-11"
     inkscape:window-y="-11"
     inkscape:window-maximized="1" />
  <metadata
     id="metadata5">
    <rdf:RDF>
      <cc:Work
         rdf:about="">
        <dc:format>image/svg+xml</dc:format>
        <dc:type
           rdf:resource="http://purl.org/dc/dcmitype/StillImage" />
        <dc:title></dc:title>
      </cc:Work>
    </rdf:RDF>
  </metadata>
  <g
     inkscape:label="Calque 1"
     inkscape:groupmode="layer"
     id="layer1">
    <rect
       style="opacity:1;fill:none;fill-opacity:1;fill-rule:nonzero;stroke:#000000;stroke-width:2.00000167;stroke-linecap:round;stroke-linejoin:round;stroke-miterlimit:4;stroke-dasharray:none;stroke-dashoffset:0;stroke-opacity:1;paint-order:markers stroke fill"
       id="rect815"
       width="144.30518"
       height="20.290356"
       x="38.266579"
       y="71.861359"
       ry="8.5790195"
       transform="matrix(0.99999833,0.0018273,0,1,0,0)" />
    <text
       xml:space="preserve"
       style="font-style:normal;font-weight:normal;font-size:10.58333302px;line-height:1.25;font-family:sans-serif;letter-spacing:0px;word-spacing:0px;fill:#000000;fill-opacity:1;stroke:none;stroke-width:0.26458332"
       x="52.652096"
       y="176.46146"
       id="text819"><tspan
         sodipodi:role="line"
         id="tspan817"
         x="52.652096"
         y="185.82523"
         style="stroke-width:0.26458332" /></text>
    <text
       xml:space="preserve"
       style="font-style:normal;font-weight:normal;font-size:10.58333302px;line-height:1.25;font-family:sans-serif;letter-spacing:0px;word-spacing:0px;fill:#000000;fill-opacity:1;stroke:none;stroke-width:0.26458332"
       x="39.823158"
       y="265.72946"
       id="text827"><tspan
         sodipodi:role="line"
         id="tspan825"
         x="39.823158"
         y="275.09323"
         style="stroke-width:0.26458332"></tspan></text>
    <g
       id="g925">
      <text
         id="text854"
         y="86.060791"
         x="71.079498"
         style="font-style:normal;font-weight:normal;font-size:10.58333302px;line-height:1.25;font-family:sans-serif;letter-spacing:0px;word-spacing:0px;fill:#000000;fill-opacity:1;stroke:none;stroke-width:0.26458332"
         xml:space="preserve"><tspan
           style="font-style:normal;font-variant:normal;font-weight:bold;font-stretch:normal;font-family:Arimo;-inkscape-font-specification:'Arimo Bold';stroke-width:0.26458332"
           y="86.060791"
           x="71.079498"
           id="tspan852"
           sodipodi:role="line">MON ESSAI VISUEL</tspan></text>
      <g
         id="g918">
        <path
           id="path839"
           d="m 53.330464,82.417603 c 0,-1.708118 1.38437,-3.092487 3.092488,-3.092487 1.708118,0 3.092487,1.384369 3.092487,3.092487 0,1.708118 -1.384369,3.092487 -3.092487,3.092487 -1.708118,0 -3.092488,-1.384369 -3.092488,-3.092487 z m -1.56026,-3.46455 c 1.137455,-1.05725 2.700615,-1.947303 4.652748,-1.947303 1.952132,0 3.515285,0.890053 4.653226,1.947303 1.130689,1.048541 1.886901,2.283125 2.244468,3.167385 0.07973,0.190864 0.07973,0.403474 0,0.594338 -0.357567,0.862513 -1.113779,2.097089 -2.244468,3.167384 -1.137941,1.058207 -2.701094,1.947296 -4.653226,1.947296 -1.952133,0 -3.515293,-0.889089 -4.652748,-1.947296 -1.130689,-1.070295 -1.886415,-2.304871 -2.245896,-3.167384 -0.07928,-0.190864 -0.07928,-0.403474 0,-0.594338 0.359481,-0.88426 1.115207,-2.118844 2.245896,-3.167385 z m 4.652748,-0.787616 c -1.575241,0 -2.870219,0.715134 -3.863195,1.635635 -0.930167,0.864928 -1.572341,1.869984 -1.900432,2.616531 0.328091,0.724808 0.970265,1.75161 1.900432,2.616538 0.992976,0.920494 2.287954,1.635636 3.863195,1.635636 1.575233,0 2.870211,-0.715142 3.863194,-1.635636 0.93016,-0.864928 1.551073,-1.89173 1.901397,-2.616538 C 61.837219,81.671056 61.216306,80.666 60.286146,79.801072 59.293163,78.880571 57.998185,78.165437 56.422952,78.165437 Z"
           inkscape:connector-curvature="0"
           style="fill:#000000;fill-opacity:1;stroke:none;stroke-width:0.02416006"
           sodipodi:nodetypes="ssssscsccccsccccscccscccs" />
        <circle
           style="opacity:1;fill:#ffffff;fill-opacity:1;fill-rule:nonzero;stroke:none;stroke-width:1.5;stroke-linecap:round;stroke-linejoin:round;stroke-miterlimit:4;stroke-dasharray:none;stroke-dashoffset:0;stroke-opacity:1;paint-order:markers stroke fill"
           id="path850"
           cx="56.968098"
           cy="80.927544"
           r="1.0512463" />
      </g>
    </g>
    <path
       style="fill:none;stroke:none;stroke-width:0.26458332px;stroke-linecap:butt;stroke-linejoin:miter;stroke-opacity:1;fill-opacity:0"
       d="m 38.482701,81.317334 0.425222,-3.543527 2.338729,-3.496278 4.157737,-2.220611 128.988981,-0.16468 5.27857,2.605879 3.14041,5.34539 -1.13589,7.884451 -4.87767,4.543581 -62.47425,-0.133633 c 0,0 -67.418739,0 -68.020095,0 -0.601355,0 -5.144939,-2.004523 -5.144939,-2.004523 l -2.53906,-3.407685 z"
       id="path911"
       inkscape:connector-curvature="0" />
  </g>
</svg>
