<?xml version="1.0" encoding="UTF-8" standalone="no"?>
<!-- Created with Inkscape (http://www.inkscape.org/) -->

<svg
   xmlns:dc="http://purl.org/dc/elements/1.1/"
   xmlns:cc="http://creativecommons.org/ns#"
   xmlns:rdf="http://www.w3.org/1999/02/22-rdf-syntax-ns#"
   xmlns:svg="http://www.w3.org/2000/svg"
   xmlns="http://www.w3.org/2000/svg"
   xmlns:sodipodi="http://sodipodi.sourceforge.net/DTD/sodipodi-0.dtd"
   xmlns:inkscape="http://www.inkscape.org/namespaces/inkscape"
   width="150mm"
   height="30mm"
   viewBox="0 0 150 30"
   version="1.1"
   id="svg8"
   inkscape:version="0.92.2 (5c3e80d, 2017-08-06)"
   sodipodi:docname="btn_juncture.svg">
  <defs
     id="defs2">
    <filter
       inkscape:collect="always"
       style="color-interpolation-filters:sRGB"
       id="filter1076"
       x="-0.013706601"
       width="1.0274132"
       y="-0.096377581"
       height="1.1927552">
      <feGaussianBlur
         inkscape:collect="always"
         stdDeviation="0.82413897"
         id="feGaussianBlur1078" />
    </filter>
  </defs>
  <sodipodi:namedview
     id="base"
     pagecolor="#ffffff"
     bordercolor="#666666"
     borderopacity="1.0"
     inkscape:pageopacity="0.0"
     inkscape:pageshadow="2"
     inkscape:zoom="1.979899"
     inkscape:cx="238.83512"
     inkscape:cy="70.256698"
     inkscape:document-units="mm"
     inkscape:current-layer="layer1"
     showgrid="false"
     inkscape:window-width="1920"
     inkscape:window-height="986"
     inkscape:window-x="-11"
     inkscape:window-y="-11"
     inkscape:window-maximized="1" />
  <metadata
     id="metadata5">
    <rdf:RDF>
      <cc:Work
         rdf:about="">
        <dc:format>image/svg+xml</dc:format>
        <dc:type
           rdf:resource="http://purl.org/dc/dcmitype/StillImage" />
        <dc:title />
      </cc:Work>
    </rdf:RDF>
  </metadata>
  <g
     inkscape:label="Calque 1"
     inkscape:groupmode="layer"
     id="layer1"
     transform="translate(0,-267)">
    <rect
       style="opacity:0.3;fill:#ffffff;fill-opacity:1;fill-rule:nonzero;stroke:none;stroke-width:2.00000167;stroke-linecap:round;stroke-linejoin:round;stroke-miterlimit:4;stroke-dasharray:none;stroke-dashoffset:0;stroke-opacity:1;paint-order:markers stroke fill"
       id="rect815-1"
       width="144.30518"
       height="20.290356"
       x="2.4600425"
       y="270.37131"
       ry="8.5790195"
       transform="matrix(0.99999833,0.0018273,0,1,0,0)" />
    <text
       xml:space="preserve"
       style="font-style:normal;font-weight:normal;font-size:10.58333302px;line-height:1.25;font-family:sans-serif;letter-spacing:0px;word-spacing:0px;fill:#000000;fill-opacity:1;stroke:none;stroke-width:0.26458332"
       x="52.652096"
       y="176.46146"
       id="text819"><tspan
         sodipodi:role="line"
         id="tspan817"
         x="52.652096"
         y="185.82523"
         style="stroke-width:0.26458332" /></text>
    <text
       xml:space="preserve"
       style="font-style:normal;font-weight:normal;font-size:10.58333302px;line-height:1.25;font-family:sans-serif;letter-spacing:0px;word-spacing:0px;fill:#000000;fill-opacity:1;stroke:none;stroke-width:0.26458332"
       x="39.823158"
       y="265.72946"
       id="text827"><tspan
         sodipodi:role="line"
         id="tspan825"
         x="39.823158"
         y="275.09323"
         style="stroke-width:0.26458332" /></text>
    <rect
       transform="matrix(0.99999833,0.0018273,0,1,-1.5875019,-1.0583291)"
       ry="8.5790195"
       y="272.77417"
       x="3.9058735"
       height="20.290356"
       width="144.30518"
       id="rect938"
       style="opacity:0.5;fill:none;fill-opacity:1;fill-rule:nonzero;stroke:#000000;stroke-width:2.00000167;stroke-linecap:round;stroke-linejoin:round;stroke-miterlimit:4;stroke-dasharray:none;stroke-dashoffset:0;stroke-opacity:1;paint-order:markers stroke fill;filter:url(#filter1076)" />
    <rect
       style="opacity:1;fill:none;fill-opacity:1;fill-rule:nonzero;stroke:#000000;stroke-width:2.00000167;stroke-linecap:round;stroke-linejoin:round;stroke-miterlimit:4;stroke-dasharray:none;stroke-dashoffset:0;stroke-opacity:1;paint-order:markers stroke fill"
       id="rect815"
       width="144.30518"
       height="20.290356"
       x="1.789201"
       y="270.66138"
       ry="8.5790195"
       transform="matrix(0.99999833,0.0018273,0,1,0,0)" />
    <text
       xml:space="preserve"
       style="font-style:normal;font-weight:normal;font-size:10.58333302px;line-height:1.25;font-family:sans-serif;letter-spacing:0px;word-spacing:0px;fill:#000000;fill-opacity:1;stroke:none;stroke-width:0.26458332"
       x="34.60218"
       y="284.79416"
       id="text854"><tspan
         sodipodi:role="line"
         id="tspan852"
         x="34.60218"
         y="284.79416"
         style="font-style:normal;font-variant:normal;font-weight:bold;font-stretch:normal;font-family:Arial;-inkscape-font-specification:'Arial Bold';stroke-width:0.26458332">MON ESSAI VISUEL</tspan></text>
    <g
       id="g940"
       transform="translate(4.1758839,-49.511819)">
      <path
         sodipodi:nodetypes="csccccsccccscccscccs"
         style="fill:#000000;fill-opacity:1;stroke:none;stroke-width:0.02416006"
         inkscape:connector-curvature="0"
         d="m 11.1168,327.19809 c 1.137455,-1.05725 2.700615,-1.9473 4.652748,-1.9473 1.952132,0 3.515285,0.89005 4.653226,1.9473 1.130689,1.04854 1.886901,2.28313 2.244468,3.16739 0.07973,0.19086 0.07973,0.40347 0,0.59434 -0.357567,0.86251 -1.113779,2.09708 -2.244468,3.16738 -1.137941,1.05821 -2.701094,1.9473 -4.653226,1.9473 -1.952133,0 -3.515293,-0.88909 -4.652748,-1.9473 -1.1306894,-1.0703 -1.8864154,-2.30487 -2.2458964,-3.16738 -0.07928,-0.19087 -0.07928,-0.40348 0,-0.59434 0.359481,-0.88426 1.115207,-2.11885 2.2458964,-3.16739 z m 4.652748,-0.78761 c -1.575241,0 -2.870219,0.71513 -3.863195,1.63563 -0.930167,0.86493 -1.572341,1.86999 -1.900432,2.61653 0.328091,0.72481 0.970265,1.75161 1.900432,2.61654 0.992976,0.9205 2.287954,1.63564 3.863195,1.63564 1.575233,0 2.870211,-0.71514 3.863194,-1.63564 0.93016,-0.86493 1.551073,-1.89173 1.901397,-2.61654 -0.350324,-0.74654 -0.971237,-1.7516 -1.901397,-2.61653 -0.992983,-0.9205 -2.287961,-1.63563 -3.863194,-1.63563 z"
         id="path935" />
      <path
         transform="matrix(0.26458333,0,0,0.26458333,0,267)"
         id="path931"
         d="m 59.441406,229.38281 c -5.13511,-0.0998 -10.26495,3.1683 -11.527344,11.23242 0,6.45589 5.231621,11.6875 11.6875,11.6875 6.45588,0 11.6875,-5.23161 11.6875,-11.6875 -0.203008,-6.68059 -6.027864,-11.11931 -11.847656,-11.23242 z m 2.220703,1.62696 a 3.9732143,3.9732143 0 0 1 3.972657,3.97265 3.9732143,3.9732143 0 0 1 -3.972657,3.97461 3.9732143,3.9732143 0 0 1 -3.972656,-3.97461 3.9732143,3.9732143 0 0 1 3.972656,-3.97265 z"
         style="fill:#000000;fill-opacity:1;stroke:none;stroke-width:0.09131361"
         inkscape:connector-curvature="0" />
    </g>
  </g>
</svg>
